<?xml version="1.0" encoding="utf-8"?>
<!-- Generator: Adobe Illustrator 19.0.0, SVG Export Plug-In . SVG Version: 6.00 Build 0)  -->
<svg version="1.1" id="Layer_1" xmlns="http://www.w3.org/2000/svg" xmlns:xlink="http://www.w3.org/1999/xlink" x="0px" y="0px"
	 viewBox="0 0 5000 5000" style="enable-background:new 0 0 5000 5000;" xml:space="preserve">
<style type="text/css">
	.st0{fill:#98B4B5;}
	.st1{fill:#FFFFFF;}
	.st2{fill:#FF9A55;}
	.st3{fill:#9CA2A0;}
	.st4{fill:#FFC153;}
	.st5{fill:#FF867B;}
	.st6{fill:#FFFBFF;}
	.st7{fill:#C6C5C4;}
	.st8{fill:#D4E3E6;}
	.st9{fill:#CB86DB;}
	.st10{fill:#D6D5D3;}
	.st11{fill:#E9E6E3;}
	.st12{fill:#FFFAF6;}
	.st13{fill:#E8E4E2;}
	.st14{fill:#80BC86;}
	.st15{fill:#8AC48D;}
	.st16{fill:#4EBBC0;}
	.st17{fill:#75CCD5;}
	.st18{fill:#D3615B;}
	.st19{fill:#A5A4A4;}
	.st20{fill:#D1C85D;}
	.st21{fill:none;}
	.st22{fill:#0B4868;}
	.st23{fill:#4BC3D0;}
	.st24{fill:#5787FF;}
	.st25{fill:#686868;}
	.st26{fill:#563722;}
	.st27{fill:#2E3E57;}
	.st28{fill:#32515E;}
	.st29{fill:#46A5A4;}
	.st30{fill:#B7342E;}
	.st31{fill:#C23C2F;}
	.st32{fill:#E29591;}
	.st33{fill:#C0D1F2;}
	.st34{fill:#FF847E;}
	.st35{fill:#E57505;}
	.st36{fill:#FF8500;}
	.st37{fill:#FFCE00;}
	.st38{fill:#B8DFDE;}
	.st39{fill:#ADCCCE;}
	.st40{fill:#CBE5E6;}
</style>
<rect class="st0" width="5000" height="3553"/>
<g>
	<g>
		<g>
			<path class="st1" d="M3082.2,2942.6V3247h-272v-485.8C2933.7,2786.5,3032.3,2883.8,3082.2,2942.6z"/>
			<path class="st2" d="M3082.2,2695v247.6c-49.9-58.8-148.6-156.1-272-181.4V2695H3082.2z"/>
		</g>
		<rect x="2835" y="2931" class="st3" width="224" height="16"/>
		<rect x="2835" y="2961" class="st3" width="224" height="16"/>
		<rect x="2835" y="2992" class="st3" width="224" height="16"/>
		<rect x="2835" y="3026" class="st3" width="224" height="25"/>
		<rect x="2835" y="3074" class="st3" width="224" height="25"/>
		<rect x="2838.4" y="3120" class="st4" width="216" height="95"/>
	</g>
	<g>
		<g>
			<path class="st1" d="M2718.2,2942.6V3247h-272v-485.8C2569.7,2786.5,2668.3,2883.8,2718.2,2942.6z"/>
			<path class="st2" d="M2718.2,2695v247.6c-49.9-58.8-148.6-156.1-272-181.4V2695H2718.2z"/>
		</g>
		<rect x="2471" y="2931" class="st3" width="224" height="16"/>
		<rect x="2471" y="2961" class="st3" width="224" height="16"/>
		<rect x="2471" y="2992" class="st3" width="224" height="16"/>
		<rect x="2471" y="3026" class="st3" width="224" height="25"/>
		<rect x="2471" y="3074" class="st3" width="224" height="25"/>
		<rect x="2474.4" y="3120" class="st4" width="216" height="95"/>
	</g>
	<g>
		<g>
			<rect x="1687.6" y="2843" class="st1" width="109.8" height="402.4"/>
			<rect x="1226.6" y="2843" class="st1" width="307.3" height="402.4"/>
			<rect x="1534" y="2843" class="st5" width="153.7" height="402.4"/>
		</g>
		<rect x="1263.8" y="2910" class="st3" width="240" height="40"/>
		<rect x="1243.8" y="3023" class="st3" width="280" height="27"/>
		<rect x="1243.8" y="3079" class="st3" width="280" height="27"/>
		<rect x="1243.8" y="3140" class="st3" width="280" height="27"/>
	</g>
	<g>
		<g>
			<path class="st6" d="M2294.2,3129.4v116h-440v-330h33.6C2144.3,2942.4,2250.4,3049.5,2294.2,3129.4z"/>
			<path class="st5" d="M2294,3129.4c-44-79.9-149.7-187.4-406.2-214.4H2294V3129.4z"/>
		</g>
		<rect x="1934" y="3074" class="st3" width="281" height="24"/>
		<rect x="1934" y="3111" class="st3" width="281" height="24"/>
		<rect x="1871" y="3172" class="st7" width="406" height="14"/>
		<rect x="1871" y="3199" class="st7" width="406" height="14"/>
	</g>
	<rect y="3257" class="st8" width="5000" height="108"/>
	<g>
		<g>
			<rect x="4796.6" y="2841" class="st1" width="109.8" height="402.4"/>
			<rect x="4335.6" y="2841" class="st1" width="307.3" height="402.4"/>
			<rect x="4643" y="2841" class="st5" width="153.7" height="402.4"/>
		</g>
		<rect x="4372.8" y="2908" class="st3" width="240" height="40"/>
		<rect x="4352.8" y="3021" class="st3" width="280" height="27"/>
		<rect x="4352.8" y="3077" class="st3" width="280" height="27"/>
		<rect x="4352.8" y="3138" class="st3" width="280" height="27"/>
	</g>
	<g>
		<g>
			<rect x="4202" y="3073" class="st1" width="78" height="174"/>
			<rect x="3683" y="3073" class="st1" width="379" height="174"/>
			<rect x="4062" y="3073" class="st5" width="140" height="174"/>
		</g>
		<rect x="3765.8" y="3114" class="st3" width="240" height="40"/>
		<rect x="3745.8" y="3183" class="st3" width="280" height="27"/>
	</g>
	<g>
		<g>
			<path class="st6" d="M3625.2,3131v116h-440v-330h33.6C3475.3,2944,3581.4,3051.1,3625.2,3131z"/>
			<path class="st9" d="M3625.2,3131c-43.8-79.9-149.9-187-406.4-214h406.4V3131z"/>
		</g>
		<rect x="3265" y="3076" class="st9" width="281" height="24"/>
		<rect x="3265" y="3113" class="st9" width="281" height="24"/>
		<rect x="3202" y="3174" class="st7" width="406" height="14"/>
		<rect x="3202" y="3201" class="st7" width="406" height="14"/>
	</g>
	<g>
		<path class="st10" d="M217.1,2879.1v-23.5h3.2h8h6.2h8h6.2h8h6.2h8h6.2h1.9v24.4c-3.2-0.6-6.6-0.9-9.9-0.9H217.1z"/>
		<path class="st11" d="M163.7,2855.5h8h6.2h8h6.2h8h6.2h8h3v23.5h-51.8c-3.4,0-6.7,0.3-9.9,0.9v-24.4h2.2H163.7z"/>
		<path class="st12" d="M87.3,2987.3c0-55.1,29.7-100.6,68-107.4c3.2-0.6,6.6-0.9,9.9-0.9h51.8v22.8v101.1h-65.4
			c-24.5,0-44.4,27.6-44.4,61.6v41.8c0,34,19.9,61.6,44.4,61.6h65.4v86.7H97.2c-3.6,0-6.7-2.8-8.3-6.8h-0.4c0-0.4-0.1-0.8-0.1-1.2
			c-0.5-1.6-0.8-3.4-0.8-5.2c0-0.6,0.1-1.1,0.1-1.6c-0.2-3.3-0.4-6.5-0.4-9.9V2987.3z"/>
		<path class="st13" d="M268.9,2879.1c3.4,0,6.7,0.3,9.9,0.9c38.4,6.8,68,52.3,68,107.4v242.6c0,3.3-0.2,6.6-0.4,9.8
			c0.1,0.5,0.1,1.1,0.1,1.7c0,1.9-0.3,3.6-0.8,5.2c0,0.4-0.1,0.8-0.1,1.2h-0.4c-1.6,4.1-4.7,6.8-8.3,6.8H217.1V3168h65.4
			c24.5,0,44.4-27.6,44.4-61.6v-41.8c0-34-19.9-61.6-44.4-61.6h-65.4v-101.1v-22.8H268.9z"/>
		<path class="st14" d="M326.9,3064.6v41.8c0,34-19.9,61.6-44.4,61.6h-65.4v-22.4h61.2v-24.9h-61.2V3100h78.1V3075h-78.1v-20.7h78.1
			v-24.9h-78.1v-26.4h65.4C307,3002.9,326.9,3030.6,326.9,3064.6z"/>
		<path class="st15" d="M139,3029.4v24.9h78.1v20.7H139v24.9h78.1v20.7h-61.2v24.9h61.2v22.4h-65.4c-24.5,0-44.4-27.6-44.4-61.6
			v-41.8c0-34,19.9-61.6,44.4-61.6h65.4v26.4H139z"/>
		<rect x="217.1" y="3029.4" class="st13" width="78.1" height="24.9"/>
		<rect x="139" y="3029.4" class="st12" width="78.1" height="24.9"/>
		<rect x="217.1" y="3075" class="st13" width="78.1" height="24.9"/>
		<rect x="139" y="3075" class="st12" width="78.1" height="24.9"/>
		<rect x="155.9" y="3120.7" class="st12" width="61.2" height="24.9"/>
		<rect x="217.1" y="3120.7" class="st13" width="61.2" height="24.9"/>
		<rect x="185.8" y="2794.1" class="st14" width="6.2" height="61.5"/>
		<rect x="185.8" y="2855.5" class="st16" width="6.2" height="0"/>
		<rect x="200" y="2794.1" class="st14" width="6.2" height="61.5"/>
		<rect x="200" y="2855.5" class="st16" width="6.2" height="0"/>
		<rect x="284.9" y="2794.1" class="st14" width="6.2" height="61.5"/>
		<rect x="270.7" y="2794.1" class="st14" width="6.2" height="61.5"/>
		<rect x="270.7" y="2855.5" class="st16" width="6.2" height="0"/>
		<polygon class="st14" points="217.1,2794.1 220.3,2794.1 220.3,2855.5 217.1,2855.5 214.1,2855.5 214.1,2794.1 		"/>
		<rect x="214.1" y="2855.5" class="st16" width="3" height="0"/>
		<rect x="217.1" y="2855.5" class="st16" width="3.2" height="0"/>
		<rect x="228.3" y="2794.1" class="st14" width="6.2" height="61.5"/>
		<rect x="228.3" y="2855.5" class="st16" width="6.2" height="0"/>
		<rect x="171.7" y="2794.1" class="st14" width="6.2" height="61.5"/>
		<rect x="171.7" y="2855.5" class="st16" width="6.2" height="0"/>
		<rect x="256.6" y="2794.1" class="st14" width="6.2" height="61.5"/>
		<rect x="256.6" y="2855.5" class="st16" width="6.2" height="0"/>
		<rect x="157.5" y="2794.1" class="st14" width="6.2" height="61.5"/>
		<rect x="157.5" y="2855.5" class="st16" width="6.2" height="0"/>
		<rect x="143.4" y="2794.1" class="st14" width="6.2" height="61.5"/>
		<rect x="242.4" y="2794.1" class="st14" width="6.2" height="61.5"/>
		<rect x="242.4" y="2855.5" class="st16" width="6.2" height="0"/>
		<rect x="130" y="2794.1" class="st14" width="5.4" height="61.5"/>
		<rect x="299" y="2794.1" class="st14" width="5.2" height="61.5"/>
		<rect x="291.1" y="2794.1" class="st15" width="8" height="61.5"/>
		<polygon class="st15" points="276.9,2855.5 276.9,2794.1 284.9,2794.1 284.9,2855.5 278.8,2855.5 278.8,2855.5 		"/>
		<rect x="276.9" y="2855.5" class="st17" width="1.9" height="0"/>
		<rect x="262.8" y="2794.1" class="st15" width="8" height="61.5"/>
		<rect x="262.8" y="2855.5" class="st17" width="8" height="0"/>
		<rect x="248.6" y="2794.1" class="st15" width="8" height="61.5"/>
		<rect x="248.6" y="2855.5" class="st17" width="8" height="0"/>
		<rect x="234.5" y="2794.1" class="st15" width="8" height="61.5"/>
		<rect x="234.5" y="2855.5" class="st17" width="8" height="0"/>
		<rect x="220.3" y="2794.1" class="st15" width="8" height="61.5"/>
		<rect x="220.3" y="2855.5" class="st17" width="8" height="0"/>
		<rect x="206.2" y="2794.1" class="st15" width="8" height="61.5"/>
		<rect x="206.2" y="2855.5" class="st17" width="8" height="0"/>
		<rect x="192" y="2794.1" class="st15" width="8" height="61.5"/>
		<rect x="192" y="2855.5" class="st17" width="8" height="0"/>
		<rect x="177.9" y="2794.1" class="st15" width="8" height="61.5"/>
		<rect x="177.9" y="2855.5" class="st17" width="8" height="0"/>
		<rect x="163.7" y="2794.1" class="st15" width="8" height="61.5"/>
		<rect x="163.7" y="2855.5" class="st17" width="8" height="0"/>
		<polygon class="st15" points="155.4,2855.5 155.4,2855.5 149.5,2855.5 149.5,2794.1 157.5,2794.1 157.5,2855.5 		"/>
		<rect x="155.4" y="2855.5" class="st17" width="2.2" height="0"/>
		<rect x="135.4" y="2794.1" class="st15" width="8" height="61.5"/>
	</g>
	<g>
		<g>
			<rect x="430" y="2848" class="st12" width="127" height="12"/>
			<rect x="430" y="2873" class="st12" width="127" height="382"/>
			<rect x="430" y="2834" class="st18" width="127" height="14"/>
			<rect x="430" y="2860" class="st18" width="127" height="13"/>
		</g>
		<g>
			<rect x="430" y="2785" class="st19" width="127" height="43"/>
			<rect x="430" y="2828" class="st12" width="127" height="6"/>
		</g>
		<rect x="410" y="2780" class="st12" width="166" height="42"/>
		<rect x="430" y="3198" class="st18" width="127" height="14"/>
		<rect x="430" y="3223" class="st18" width="127" height="14"/>
		<rect x="518" y="2920" class="st18" width="10" height="215"/>
		<rect x="473" y="2920" class="st18" width="10" height="215"/>
		<rect x="456" y="2920" class="st18" width="10" height="215"/>
	</g>
	<g>
		<g>
			<rect x="676" y="2848" class="st12" width="127" height="12"/>
			<rect x="676" y="2873" class="st12" width="127" height="382"/>
			<rect x="676" y="2834" class="st20" width="127" height="14"/>
			<rect x="676" y="2860" class="st20" width="127" height="13"/>
		</g>
		<g>
			<rect x="676" y="2785" class="st19" width="127" height="43"/>
			<rect x="676" y="2828" class="st12" width="127" height="6"/>
		</g>
		<rect x="656" y="2780" class="st12" width="166" height="42"/>
		<rect x="676" y="3198" class="st20" width="127" height="14"/>
		<rect x="676" y="3223" class="st20" width="127" height="14"/>
		<rect x="764" y="2920" class="st20" width="10" height="215"/>
		<rect x="719" y="2920" class="st20" width="10" height="215"/>
		<rect x="702" y="2920" class="st20" width="10" height="215"/>
	</g>
	<g>
		<g>
			<path class="st1" d="M1152.2,2937.6V3242h-272v-485.8C1003.7,2781.5,1102.3,2878.8,1152.2,2937.6z"/>
			<path class="st2" d="M1152.2,2690v247.6c-49.9-58.8-148.6-156.1-272-181.4V2690H1152.2z"/>
		</g>
		<rect x="905" y="2926" class="st3" width="224" height="16"/>
		<rect x="905" y="2956" class="st3" width="224" height="16"/>
		<rect x="905" y="2987" class="st3" width="224" height="16"/>
		<rect x="905" y="3021" class="st3" width="224" height="25"/>
		<rect x="905" y="3069" class="st3" width="224" height="25"/>
		<rect x="908.4" y="3115" class="st4" width="216" height="95"/>
	</g>
</g>
<g>
	<path class="st21" d="M3177.3,2562.8l0.3-1l-0.3-0.2C3177.3,2562,3177.3,2562.4,3177.3,2562.8z"/>
	<path class="st21" d="M2472.6,3461.3L2472.6,3461.3c-0.1,0-0.1,0-0.2,0C2472.5,3461.3,2472.5,3461.3,2472.6,3461.3z"/>
	<path class="st22" d="M3177.3,2563.8c0-0.3,0-0.7,0-1l-0.2,0.6L3177.3,2563.8z"/>
	<path class="st23" d="M2472.6,3461.3L2472.6,3461.3c-0.1,0-0.1,0-0.2,0C2472.5,3461.3,2472.5,3461.3,2472.6,3461.3z"/>
</g>
<path class="st21" d="M2476.4,3386.2l49.4-97.7c-36.7-38.6-114,41.1-114,41.1v19.1l42-7.3L2476.4,3386.2z"/>
<g>
	<g>
		<g>
			<path class="st1" d="M1389.5,1371.6V1676h272v-485.8C1538.1,1215.5,1439.4,1312.8,1389.5,1371.6z"/>
			<path class="st24" d="M1389.5,1124v247.6c49.9-58.8,148.6-156.1,272-181.4V1124H1389.5z"/>
		</g>
		<rect x="1433" y="1172" class="st25" width="184" height="104"/>
		<rect x="1413" y="1329" class="st25" width="224" height="16"/>
		<rect x="1413" y="1360" class="st25" width="224" height="16"/>
		<rect x="1413" y="1390" class="st25" width="224" height="16"/>
		<rect x="1413" y="1421" class="st25" width="224" height="16"/>
		<rect x="1413" y="1455" class="st25" width="224" height="25"/>
		<rect x="1413" y="1503" class="st25" width="224" height="25"/>
		<rect x="1417" y="1549" class="st25" width="216" height="95"/>
	</g>
	<g>
		<g>
			<path class="st1" d="M1725.8,1371.6V1676h272v-485.8C1874.3,1215.5,1775.7,1312.8,1725.8,1371.6z"/>
			<path class="st2" d="M1725.8,1124v247.6c49.9-58.8,148.6-156.1,272-181.4V1124H1725.8z"/>
		</g>
		<rect x="1749" y="1360" class="st3" width="224" height="16"/>
		<rect x="1749" y="1390" class="st3" width="224" height="16"/>
		<rect x="1749" y="1421" class="st3" width="224" height="16"/>
		<rect x="1749" y="1455" class="st3" width="224" height="25"/>
		<rect x="1749" y="1503" class="st3" width="224" height="25"/>
		<rect x="1753.6" y="1549" class="st4" width="216" height="95"/>
	</g>
	<g>
		<g>
			<path class="st1" d="M2729.8,1373.6V1678h272v-485.8C2878.3,1217.5,2779.7,1314.8,2729.8,1373.6z"/>
			<path class="st2" d="M2729.8,1126v247.6c49.9-58.8,148.6-156.1,272-181.4V1126H2729.8z"/>
		</g>
		<rect x="2753" y="1362" class="st3" width="224" height="16"/>
		<rect x="2753" y="1392" class="st3" width="224" height="16"/>
		<rect x="2753" y="1423" class="st3" width="224" height="16"/>
		<rect x="2753" y="1457" class="st3" width="224" height="25"/>
		<rect x="2753" y="1505" class="st3" width="224" height="25"/>
		<rect x="2757.6" y="1551" class="st4" width="216" height="95"/>
	</g>
	<g>
		<g>
			<path class="st1" d="M3064.8,1373.6V1678h272v-485.8C3213.3,1217.5,3114.7,1314.8,3064.8,1373.6z"/>
			<path class="st2" d="M3064.8,1126v247.6c49.9-58.8,148.6-156.1,272-181.4V1126H3064.8z"/>
		</g>
		<rect x="3088" y="1362" class="st3" width="224" height="16"/>
		<rect x="3088" y="1392" class="st3" width="224" height="16"/>
		<rect x="3088" y="1423" class="st3" width="224" height="16"/>
		<rect x="3088" y="1457" class="st3" width="224" height="25"/>
		<rect x="3088" y="1505" class="st3" width="224" height="25"/>
		<rect x="3092.6" y="1551" class="st4" width="216" height="95"/>
	</g>
	<g>
		<g>
			<path class="st1" d="M1058.2,1371.6V1676h272v-485.8C1206.8,1215.5,1108.1,1312.8,1058.2,1371.6z"/>
			<path class="st24" d="M1058.2,1124v247.6c49.9-58.8,148.6-156.1,272-181.4V1124H1058.2z"/>
		</g>
		<rect x="1102" y="1172" class="st25" width="184" height="104"/>
		<rect x="1082" y="1329" class="st25" width="224" height="16"/>
		<rect x="1082" y="1360" class="st25" width="224" height="16"/>
		<rect x="1082" y="1390" class="st25" width="224" height="16"/>
		<rect x="1082" y="1421" class="st25" width="224" height="16"/>
		<rect x="1082" y="1455" class="st25" width="224" height="25"/>
		<rect x="1082" y="1503" class="st25" width="224" height="25"/>
		<rect x="1086" y="1549" class="st25" width="216" height="95"/>
	</g>
	<g>
		<g>
			<path class="st4" d="M727,1371.6V1676h272v-485.8C875.6,1215.5,776.9,1312.8,727,1371.6z"/>
			<path class="st2" d="M727,1124v247.6c49.9-58.8,148.6-156.1,272-181.4V1124H727z"/>
		</g>
		<rect x="771" y="1172" class="st1" width="184" height="104"/>
		<rect x="750" y="1329" class="st25" width="224" height="16"/>
		<rect x="750" y="1360" class="st25" width="224" height="16"/>
		<rect x="750" y="1390" class="st25" width="224" height="16"/>
		<rect x="750" y="1421" class="st25" width="224" height="16"/>
		<rect x="750" y="1455" class="st25" width="224" height="25"/>
		<rect x="750" y="1503" class="st25" width="224" height="25"/>
		<rect x="754.8" y="1549" class="st1" width="216" height="95"/>
	</g>
	<g>
		<g>
			<path class="st4" d="M395.8,1371.6V1676h272v-485.8C544.3,1215.5,445.6,1312.8,395.8,1371.6z"/>
			<path class="st2" d="M395.8,1124v247.6c49.9-58.8,148.6-156.1,272-181.4V1124H395.8z"/>
		</g>
		<rect x="439.8" y="1172" class="st1" width="184" height="104"/>
		<rect x="419" y="1329" class="st25" width="224" height="16"/>
		<rect x="419" y="1360" class="st25" width="224" height="16"/>
		<rect x="419" y="1390" class="st25" width="224" height="16"/>
		<rect x="419" y="1421" class="st25" width="224" height="16"/>
		<rect x="419" y="1455" class="st25" width="224" height="25"/>
		<rect x="419" y="1503" class="st25" width="224" height="25"/>
		<rect x="423.6" y="1549" class="st1" width="216" height="95"/>
	</g>
	<g>
		<g>
			<path class="st4" d="M64.5,1371.6V1676h272v-485.8C213.1,1215.5,114.4,1312.8,64.5,1371.6z"/>
			<path class="st2" d="M64.5,1124v247.6c49.9-58.8,148.6-156.1,272-181.4V1124H64.5z"/>
		</g>
		<rect x="108.5" y="1172" class="st1" width="184" height="104"/>
		<rect x="88" y="1329" class="st25" width="224" height="16"/>
		<rect x="88" y="1360" class="st25" width="224" height="16"/>
		<rect x="88" y="1390" class="st25" width="224" height="16"/>
		<rect x="88" y="1421" class="st25" width="224" height="16"/>
		<rect x="88" y="1455" class="st25" width="224" height="25"/>
		<rect x="88" y="1503" class="st25" width="224" height="25"/>
		<rect x="92.3" y="1549" class="st1" width="216" height="95"/>
	</g>
	<rect y="1681" class="st8" width="5000" height="108"/>
	<path class="st26" d="M1821,1350"/>
	<g>
		<path class="st10" d="M4279.4,1295.7v-23.5h-3.9h-9.6h-7.5h-9.6h-7.5h-9.6h-7.5h-9.6h-7.5h-2.3v24.4c3.9-0.6,7.9-0.9,12-0.9
			H4279.4z"/>
		<path class="st11" d="M4343.9,1272.2h-9.6h-7.5h-9.6h-7.5h-9.6h-7.5h-9.6h-3.6v23.5h62.6c4.1,0,8.1,0.3,12,0.9v-24.4h-2.6H4343.9z
			"/>
		<path class="st12" d="M4436.1,1404c0-55.1-35.8-100.6-82.2-107.4c-3.9-0.6-7.9-0.9-12-0.9h-62.6v22.8v101.1h79
			c29.6,0,53.6,27.6,53.6,61.6v41.8c0,34-24,61.6-53.6,61.6h-79v86.7h144.9c4.3,0,8.1-2.8,10-6.8h0.4c0.1-0.4,0.1-0.8,0.1-1.2
			c0.6-1.6,0.9-3.4,0.9-5.2c0-0.6-0.1-1.1-0.2-1.6c0.3-3.3,0.5-6.5,0.5-9.9V1404z"/>
		<path class="st13" d="M4216.8,1295.7c-4.1,0-8.1,0.3-12,0.9c-46.3,6.8-82.2,52.3-82.2,107.4v242.6c0,3.3,0.2,6.6,0.5,9.8
			c-0.1,0.5-0.1,1.1-0.1,1.7c0,1.9,0.3,3.6,0.9,5.2c0.1,0.4,0.1,0.8,0.1,1.2h0.4c2,4.1,5.7,6.8,10,6.8h144.9v-86.7h-79
			c-29.6,0-53.6-27.6-53.6-61.6v-41.8c0-34,24-61.6,53.6-61.6h79v-101.1v-22.8H4216.8z"/>
		<path class="st27" d="M4146.7,1481.2v41.8c0,34,24,61.6,53.6,61.6h79v-22.4h-73.9v-24.9h73.9v-20.7H4185v-24.9h94.4v-20.7H4185
			V1446h94.4v-26.4h-79C4170.7,1419.6,4146.7,1447.2,4146.7,1481.2z"/>
		<path class="st28" d="M4373.8,1446v24.9h-94.4v20.7h94.4v24.9h-94.4v20.7h73.9v24.9h-73.9v22.4h79c29.6,0,53.6-27.6,53.6-61.6
			v-41.8c0-34-24-61.6-53.6-61.6h-79v26.4H4373.8z"/>
		<rect x="4185" y="1446" class="st29" width="94.4" height="24.9"/>
		<rect x="4279.4" y="1446" class="st16" width="94.4" height="24.9"/>
		<rect x="4185" y="1491.7" class="st29" width="94.4" height="24.9"/>
		<rect x="4279.4" y="1491.7" class="st16" width="94.4" height="24.9"/>
		<rect x="4279.4" y="1537.3" class="st16" width="73.9" height="24.9"/>
		<rect x="4205.5" y="1537.3" class="st29" width="73.9" height="24.9"/>
		<rect x="4309.7" y="1210.7" class="st27" width="7.5" height="61.5"/>
		<rect x="4309.7" y="1272.2" class="st16" width="7.5" height="0"/>
		<rect x="4292.6" y="1210.7" class="st27" width="7.5" height="61.5"/>
		<rect x="4292.6" y="1272.2" class="st16" width="7.5" height="0"/>
		<rect x="4190" y="1210.7" class="st27" width="7.5" height="61.5"/>
		<rect x="4207.1" y="1210.7" class="st27" width="7.5" height="61.5"/>
		<rect x="4207.1" y="1272.2" class="st16" width="7.5" height="0"/>
		<polygon class="st27" points="4279.4,1210.7 4275.5,1210.7 4275.5,1272.2 4279.4,1272.2 4283,1272.2 4283,1210.7 		"/>
		<rect x="4279.4" y="1272.2" class="st16" width="3.6" height="0"/>
		<rect x="4275.5" y="1272.2" class="st16" width="3.9" height="0"/>
		<rect x="4258.4" y="1210.7" class="st27" width="7.5" height="61.5"/>
		<rect x="4258.4" y="1272.2" class="st16" width="7.5" height="0"/>
		<rect x="4326.8" y="1210.7" class="st27" width="7.5" height="61.5"/>
		<rect x="4326.8" y="1272.2" class="st16" width="7.5" height="0"/>
		<rect x="4224.2" y="1210.7" class="st27" width="7.5" height="61.5"/>
		<rect x="4224.2" y="1272.2" class="st16" width="7.5" height="0"/>
		<rect x="4343.9" y="1210.7" class="st27" width="7.5" height="61.5"/>
		<rect x="4343.9" y="1272.2" class="st16" width="7.5" height="0"/>
		<rect x="4361" y="1210.7" class="st27" width="7.5" height="61.5"/>
		<rect x="4241.3" y="1210.7" class="st27" width="7.5" height="61.5"/>
		<rect x="4241.3" y="1272.2" class="st16" width="7.5" height="0"/>
		<rect x="4378.1" y="1210.7" class="st27" width="6.6" height="61.5"/>
		<rect x="4174.1" y="1210.7" class="st27" width="6.3" height="61.5"/>
		<rect x="4180.4" y="1210.7" class="st28" width="9.6" height="61.5"/>
		<polygon class="st28" points="4207.1,1272.2 4207.1,1210.7 4197.5,1210.7 4197.5,1272.2 4204.8,1272.2 4204.8,1272.2 		"/>
		<rect x="4204.8" y="1272.2" class="st17" width="2.3" height="0"/>
		<rect x="4214.6" y="1210.7" class="st28" width="9.6" height="61.5"/>
		<rect x="4214.6" y="1272.2" class="st17" width="9.6" height="0"/>
		<rect x="4231.7" y="1210.7" class="st28" width="9.6" height="61.5"/>
		<rect x="4231.7" y="1272.2" class="st17" width="9.6" height="0"/>
		<rect x="4248.8" y="1210.7" class="st28" width="9.6" height="61.5"/>
		<rect x="4248.8" y="1272.2" class="st17" width="9.6" height="0"/>
		<rect x="4265.9" y="1210.7" class="st28" width="9.6" height="61.5"/>
		<rect x="4265.9" y="1272.2" class="st17" width="9.6" height="0"/>
		<rect x="4283" y="1210.7" class="st28" width="9.6" height="61.5"/>
		<rect x="4283" y="1272.2" class="st17" width="9.6" height="0"/>
		<rect x="4300.1" y="1210.7" class="st28" width="9.6" height="61.5"/>
		<rect x="4300.1" y="1272.2" class="st17" width="9.6" height="0"/>
		<rect x="4317.2" y="1210.7" class="st28" width="9.6" height="61.5"/>
		<rect x="4317.2" y="1272.2" class="st17" width="9.6" height="0"/>
		<rect x="4334.3" y="1210.7" class="st28" width="9.6" height="61.5"/>
		<rect x="4334.3" y="1272.2" class="st17" width="9.6" height="0"/>
		<polygon class="st28" points="4354,1272.2 4354,1272.2 4361,1272.2 4361,1210.7 4351.4,1210.7 4351.4,1272.2 		"/>
		<rect x="4351.4" y="1272.2" class="st17" width="2.6" height="0"/>
		<rect x="4368.5" y="1210.7" class="st28" width="9.6" height="61.5"/>
	</g>
	<g>
		<path class="st10" d="M4643.5,1295.7v-23.5h-3.9h-9.6h-7.5h-9.6h-7.5h-9.6h-7.5h-9.6h-7.5h-2.3v24.4c3.9-0.6,7.9-0.9,12-0.9
			H4643.5z"/>
		<path class="st11" d="M4708,1272.2h-9.6h-7.5h-9.6h-7.5h-9.6h-7.5h-9.6h-3.6v23.5h62.6c4.1,0,8.1,0.3,12,0.9v-24.4h-2.6H4708z"/>
		<path class="st12" d="M4800.2,1404c0-55.1-35.8-100.6-82.2-107.4c-3.9-0.6-7.9-0.9-12-0.9h-62.6v22.8v101.1h79
			c29.6,0,53.6,27.6,53.6,61.6v41.8c0,34-24,61.6-53.6,61.6h-79v86.7h144.9c4.3,0,8.1-2.8,10-6.8h0.4c0.1-0.4,0.1-0.8,0.1-1.2
			c0.6-1.6,0.9-3.4,0.9-5.2c0-0.6-0.1-1.1-0.2-1.6c0.3-3.3,0.5-6.5,0.5-9.9V1404z"/>
		<path class="st13" d="M4580.9,1295.7c-4.1,0-8.1,0.3-12,0.9c-46.3,6.8-82.2,52.3-82.2,107.4v242.6c0,3.3,0.2,6.6,0.5,9.8
			c-0.1,0.5-0.1,1.1-0.1,1.7c0,1.9,0.3,3.6,0.9,5.2c0.1,0.4,0.1,0.8,0.1,1.2h0.4c2,4.1,5.7,6.8,10,6.8h144.9v-86.7h-79
			c-29.6,0-53.6-27.6-53.6-61.6v-41.8c0-34,24-61.6,53.6-61.6h79v-101.1v-22.8H4580.9z"/>
		<path class="st27" d="M4510.8,1481.2v41.8c0,34,24,61.6,53.6,61.6h79v-22.4h-73.9v-24.9h73.9v-20.7h-94.4v-24.9h94.4v-20.7h-94.4
			V1446h94.4v-26.4h-79C4534.8,1419.6,4510.8,1447.2,4510.8,1481.2z"/>
		<path class="st28" d="M4737.9,1446v24.9h-94.4v20.7h94.4v24.9h-94.4v20.7h73.9v24.9h-73.9v22.4h79c29.6,0,53.6-27.6,53.6-61.6
			v-41.8c0-34-24-61.6-53.6-61.6h-79v26.4H4737.9z"/>
		<rect x="4549.1" y="1446" class="st29" width="94.4" height="24.9"/>
		<rect x="4643.5" y="1446" class="st16" width="94.4" height="24.9"/>
		<rect x="4549.1" y="1491.7" class="st29" width="94.4" height="24.9"/>
		<rect x="4643.5" y="1491.7" class="st16" width="94.4" height="24.9"/>
		<rect x="4643.5" y="1537.3" class="st16" width="73.9" height="24.9"/>
		<rect x="4569.6" y="1537.3" class="st29" width="73.9" height="24.9"/>
		<rect x="4673.8" y="1210.7" class="st27" width="7.5" height="61.5"/>
		<rect x="4673.8" y="1272.2" class="st16" width="7.5" height="0"/>
		<rect x="4656.7" y="1210.7" class="st27" width="7.5" height="61.5"/>
		<rect x="4656.7" y="1272.2" class="st16" width="7.5" height="0"/>
		<rect x="4554.1" y="1210.7" class="st27" width="7.5" height="61.5"/>
		<rect x="4571.2" y="1210.7" class="st27" width="7.5" height="61.5"/>
		<rect x="4571.2" y="1272.2" class="st16" width="7.5" height="0"/>
		<polygon class="st27" points="4643.5,1210.7 4639.6,1210.7 4639.6,1272.2 4643.5,1272.2 4647.1,1272.2 4647.1,1210.7 		"/>
		<rect x="4643.5" y="1272.2" class="st16" width="3.6" height="0"/>
		<rect x="4639.6" y="1272.2" class="st16" width="3.9" height="0"/>
		<rect x="4622.5" y="1210.7" class="st27" width="7.5" height="61.5"/>
		<rect x="4622.5" y="1272.2" class="st16" width="7.5" height="0"/>
		<rect x="4690.9" y="1210.7" class="st27" width="7.5" height="61.5"/>
		<rect x="4690.9" y="1272.2" class="st16" width="7.5" height="0"/>
		<rect x="4588.3" y="1210.7" class="st27" width="7.5" height="61.5"/>
		<rect x="4588.3" y="1272.2" class="st16" width="7.5" height="0"/>
		<rect x="4708" y="1210.7" class="st27" width="7.5" height="61.5"/>
		<rect x="4708" y="1272.2" class="st16" width="7.5" height="0"/>
		<rect x="4725.1" y="1210.7" class="st27" width="7.5" height="61.5"/>
		<rect x="4605.4" y="1210.7" class="st27" width="7.5" height="61.5"/>
		<rect x="4605.4" y="1272.2" class="st16" width="7.5" height="0"/>
		<rect x="4742.2" y="1210.7" class="st27" width="6.6" height="61.5"/>
		<rect x="4538.2" y="1210.7" class="st27" width="6.3" height="61.5"/>
		<rect x="4544.5" y="1210.7" class="st28" width="9.6" height="61.5"/>
		<polygon class="st28" points="4571.2,1272.2 4571.2,1210.7 4561.6,1210.7 4561.6,1272.2 4568.9,1272.2 4568.9,1272.2 		"/>
		<rect x="4568.9" y="1272.2" class="st17" width="2.3" height="0"/>
		<rect x="4578.7" y="1210.7" class="st28" width="9.6" height="61.5"/>
		<rect x="4578.7" y="1272.2" class="st17" width="9.6" height="0"/>
		<rect x="4595.8" y="1210.7" class="st28" width="9.6" height="61.5"/>
		<rect x="4595.8" y="1272.2" class="st17" width="9.6" height="0"/>
		<rect x="4612.9" y="1210.7" class="st28" width="9.6" height="61.5"/>
		<rect x="4612.9" y="1272.2" class="st17" width="9.6" height="0"/>
		<rect x="4630" y="1210.7" class="st28" width="9.6" height="61.5"/>
		<rect x="4630" y="1272.2" class="st17" width="9.6" height="0"/>
		<rect x="4647.1" y="1210.7" class="st28" width="9.6" height="61.5"/>
		<rect x="4647.1" y="1272.2" class="st17" width="9.6" height="0"/>
		<rect x="4664.2" y="1210.7" class="st28" width="9.6" height="61.5"/>
		<rect x="4664.2" y="1272.2" class="st17" width="9.6" height="0"/>
		<rect x="4681.3" y="1210.7" class="st28" width="9.6" height="61.5"/>
		<rect x="4681.3" y="1272.2" class="st17" width="9.6" height="0"/>
		<rect x="4698.4" y="1210.7" class="st28" width="9.6" height="61.5"/>
		<rect x="4698.4" y="1272.2" class="st17" width="9.6" height="0"/>
		<polygon class="st28" points="4718.1,1272.2 4718.1,1272.2 4725.1,1272.2 4725.1,1210.7 4715.5,1210.7 4715.5,1272.2 		"/>
		<rect x="4715.5" y="1272.2" class="st17" width="2.6" height="0"/>
		<rect x="4732.6" y="1210.7" class="st28" width="9.6" height="61.5"/>
	</g>
	<g>
		<path class="st10" d="M2525.6,1298.7v-23.5h-3.9h-9.6h-7.5h-9.6h-7.5h-9.6h-7.5h-9.6h-7.5h-2.3v24.4c3.9-0.6,7.9-0.9,12-0.9
			H2525.6z"/>
		<path class="st11" d="M2590.1,1275.2h-9.6h-7.5h-9.6h-7.5h-9.6h-7.5h-9.6h-3.6v23.5h62.6c4.1,0,8.1,0.3,12,0.9v-24.4h-2.6H2590.1z
			"/>
		<path class="st12" d="M2682.3,1406.9c0-55.1-35.8-100.6-82.2-107.4c-3.9-0.6-7.9-0.9-12-0.9h-62.6v22.8v101.1h79
			c29.6,0,53.6,27.6,53.6,61.6v41.8c0,34-24,61.6-53.6,61.6h-79v86.7h144.9c4.3,0,8.1-2.8,10-6.8h0.4c0.1-0.4,0.1-0.8,0.1-1.2
			c0.6-1.6,0.9-3.4,0.9-5.2c0-0.6-0.1-1.1-0.2-1.6c0.3-3.3,0.5-6.5,0.5-9.9V1406.9z"/>
		<path class="st13" d="M2463,1298.7c-4.1,0-8.1,0.3-12,0.9c-46.3,6.8-82.2,52.3-82.2,107.4v242.6c0,3.3,0.2,6.6,0.5,9.8
			c-0.1,0.5-0.1,1.1-0.1,1.7c0,1.9,0.3,3.6,0.9,5.2c0.1,0.4,0.1,0.8,0.1,1.2h0.4c2,4.1,5.7,6.8,10,6.8h144.9v-86.7h-79
			c-29.6,0-53.6-27.6-53.6-61.6v-41.8c0-34,24-61.6,53.6-61.6h79v-101.1v-22.8H2463z"/>
		<path class="st27" d="M2392.9,1484.2v41.8c0,34,24,61.6,53.6,61.6h79v-22.4h-73.9v-24.9h73.9v-20.7h-94.4v-24.9h94.4v-20.7h-94.4
			V1449h94.4v-26.4h-79C2416.9,1422.6,2392.9,1450.2,2392.9,1484.2z"/>
		<path class="st28" d="M2620,1449v24.9h-94.4v20.7h94.4v24.9h-94.4v20.7h73.9v24.9h-73.9v22.4h79c29.6,0,53.6-27.6,53.6-61.6v-41.8
			c0-34-24-61.6-53.6-61.6h-79v26.4H2620z"/>
		<rect x="2431.2" y="1449" class="st29" width="94.4" height="24.9"/>
		<rect x="2525.6" y="1449" class="st16" width="94.4" height="24.9"/>
		<rect x="2431.2" y="1494.6" class="st29" width="94.4" height="24.9"/>
		<rect x="2525.6" y="1494.6" class="st16" width="94.4" height="24.9"/>
		<rect x="2525.6" y="1540.3" class="st16" width="73.9" height="24.9"/>
		<rect x="2451.7" y="1540.3" class="st29" width="73.9" height="24.9"/>
		<rect x="2555.9" y="1213.7" class="st27" width="7.5" height="61.5"/>
		<rect x="2555.9" y="1275.1" class="st16" width="7.5" height="0"/>
		<rect x="2538.8" y="1213.7" class="st27" width="7.5" height="61.5"/>
		<rect x="2538.8" y="1275.1" class="st16" width="7.5" height="0"/>
		<rect x="2436.2" y="1213.7" class="st27" width="7.5" height="61.5"/>
		<rect x="2453.3" y="1213.7" class="st27" width="7.5" height="61.5"/>
		<rect x="2453.3" y="1275.1" class="st16" width="7.5" height="0"/>
		<polygon class="st27" points="2525.6,1213.7 2521.7,1213.7 2521.7,1275.1 2525.6,1275.1 2529.2,1275.1 2529.2,1213.7 		"/>
		<rect x="2525.6" y="1275.1" class="st16" width="3.6" height="0"/>
		<rect x="2521.7" y="1275.1" class="st16" width="3.9" height="0"/>
		<rect x="2504.6" y="1213.7" class="st27" width="7.5" height="61.5"/>
		<rect x="2504.6" y="1275.1" class="st16" width="7.5" height="0"/>
		<rect x="2573" y="1213.7" class="st27" width="7.5" height="61.5"/>
		<rect x="2573" y="1275.1" class="st16" width="7.5" height="0"/>
		<rect x="2470.4" y="1213.7" class="st27" width="7.5" height="61.5"/>
		<rect x="2470.4" y="1275.1" class="st16" width="7.5" height="0"/>
		<rect x="2590.1" y="1213.7" class="st27" width="7.5" height="61.5"/>
		<rect x="2590.1" y="1275.1" class="st16" width="7.5" height="0"/>
		<rect x="2607.2" y="1213.7" class="st27" width="7.5" height="61.5"/>
		<rect x="2487.5" y="1213.7" class="st27" width="7.5" height="61.5"/>
		<rect x="2487.5" y="1275.1" class="st16" width="7.5" height="0"/>
		<rect x="2624.3" y="1213.7" class="st27" width="6.6" height="61.5"/>
		<rect x="2420.3" y="1213.7" class="st27" width="6.3" height="61.5"/>
		<rect x="2426.6" y="1213.7" class="st28" width="9.6" height="61.5"/>
		<polygon class="st28" points="2453.3,1275.1 2453.3,1213.7 2443.7,1213.7 2443.7,1275.2 2451,1275.2 2451,1275.1 		"/>
		<rect x="2451" y="1275.1" class="st17" width="2.3" height="0"/>
		<rect x="2460.8" y="1213.7" class="st28" width="9.6" height="61.5"/>
		<rect x="2460.8" y="1275.1" class="st17" width="9.6" height="0"/>
		<rect x="2477.9" y="1213.7" class="st28" width="9.6" height="61.5"/>
		<rect x="2477.9" y="1275.1" class="st17" width="9.6" height="0"/>
		<rect x="2495" y="1213.7" class="st28" width="9.6" height="61.5"/>
		<rect x="2495" y="1275.1" class="st17" width="9.6" height="0"/>
		<rect x="2512.1" y="1213.7" class="st28" width="9.6" height="61.5"/>
		<rect x="2512.1" y="1275.1" class="st17" width="9.6" height="0"/>
		<rect x="2529.2" y="1213.7" class="st28" width="9.6" height="61.5"/>
		<rect x="2529.2" y="1275.1" class="st17" width="9.6" height="0"/>
		<rect x="2546.3" y="1213.7" class="st28" width="9.6" height="61.5"/>
		<rect x="2546.3" y="1275.1" class="st17" width="9.6" height="0"/>
		<rect x="2563.4" y="1213.7" class="st28" width="9.6" height="61.5"/>
		<rect x="2563.4" y="1275.1" class="st17" width="9.6" height="0"/>
		<rect x="2580.5" y="1213.7" class="st28" width="9.6" height="61.5"/>
		<rect x="2580.5" y="1275.1" class="st17" width="9.6" height="0"/>
		<polygon class="st28" points="2600.2,1275.1 2600.2,1275.2 2607.2,1275.2 2607.2,1213.7 2597.6,1213.7 2597.6,1275.1 		"/>
		<rect x="2597.6" y="1275.1" class="st17" width="2.6" height="0"/>
		<rect x="2614.7" y="1213.7" class="st28" width="9.6" height="61.5"/>
	</g>
	<g>
		<path class="st10" d="M3551.2,1295.7v-23.5h-3.9h-9.6h-7.5h-9.6h-7.5h-9.6h-7.5h-9.6h-7.5h-2.3v24.4c3.9-0.6,7.9-0.9,12-0.9
			H3551.2z"/>
		<path class="st11" d="M3615.7,1272.2h-9.6h-7.5h-9.6h-7.5h-9.6h-7.5h-9.6h-3.6v23.5h62.6c4.1,0,8.1,0.3,12,0.9v-24.4h-2.6H3615.7z
			"/>
		<path class="st12" d="M3707.9,1404c0-55.1-35.8-100.6-82.2-107.4c-3.9-0.6-7.9-0.9-12-0.9h-62.6v22.8v101.1h79
			c29.6,0,53.6,27.6,53.6,61.6v41.8c0,34-24,61.6-53.6,61.6h-79v86.7H3696c4.3,0,8.1-2.8,10-6.8h0.4c0.1-0.4,0.1-0.8,0.1-1.2
			c0.6-1.6,0.9-3.4,0.9-5.2c0-0.6-0.1-1.1-0.2-1.6c0.3-3.3,0.5-6.5,0.5-9.9V1404z"/>
		<path class="st13" d="M3488.6,1295.7c-4.1,0-8.1,0.3-12,0.9c-46.3,6.8-82.2,52.3-82.2,107.4v242.6c0,3.3,0.2,6.6,0.5,9.8
			c-0.1,0.5-0.1,1.1-0.1,1.7c0,1.9,0.3,3.6,0.9,5.2c0.1,0.4,0.1,0.8,0.1,1.2h0.4c2,4.1,5.7,6.8,10,6.8h144.9v-86.7h-79
			c-29.6,0-53.6-27.6-53.6-61.6v-41.8c0-34,24-61.6,53.6-61.6h79v-101.1v-22.8H3488.6z"/>
		<path class="st30" d="M3418.5,1481.2v41.8c0,34,24,61.6,53.6,61.6h79v-22.4h-73.9v-24.9h73.9v-20.7h-94.4v-24.9h94.4v-20.7h-94.4
			V1446h94.4v-26.4h-79C3442.5,1419.6,3418.5,1447.2,3418.5,1481.2z"/>
		<path class="st31" d="M3645.5,1446v24.9h-94.4v20.7h94.4v24.9h-94.4v20.7h73.9v24.9h-73.9v22.4h79c29.6,0,53.6-27.6,53.6-61.6
			v-41.8c0-34-24-61.6-53.6-61.6h-79v26.4H3645.5z"/>
		<rect x="3456.8" y="1446" class="st32" width="94.4" height="24.9"/>
		<rect x="3551.2" y="1446" class="st32" width="94.4" height="24.9"/>
		<rect x="3456.8" y="1491.7" class="st32" width="94.4" height="24.9"/>
		<rect x="3551.2" y="1491.7" class="st32" width="94.4" height="24.9"/>
		<rect x="3551.2" y="1537.3" class="st32" width="73.9" height="24.9"/>
		<rect x="3477.2" y="1537.3" class="st32" width="73.9" height="24.9"/>
		<rect x="3581.5" y="1210.7" class="st31" width="7.5" height="61.5"/>
		<rect x="3581.5" y="1272.2" class="st16" width="7.5" height="0"/>
		<rect x="3564.4" y="1210.7" class="st31" width="7.5" height="61.5"/>
		<rect x="3564.4" y="1272.2" class="st16" width="7.5" height="0"/>
		<rect x="3461.8" y="1210.7" class="st31" width="7.5" height="61.5"/>
		<rect x="3478.9" y="1210.7" class="st31" width="7.5" height="61.5"/>
		<rect x="3478.9" y="1272.2" class="st16" width="7.5" height="0"/>
		<polygon class="st31" points="3551.2,1210.7 3547.3,1210.7 3547.3,1272.2 3551.2,1272.2 3554.8,1272.2 3554.8,1210.7 		"/>
		<rect x="3551.2" y="1272.2" class="st16" width="3.6" height="0"/>
		<rect x="3547.3" y="1272.2" class="st16" width="3.9" height="0"/>
		<rect x="3530.2" y="1210.7" class="st31" width="7.5" height="61.5"/>
		<rect x="3530.2" y="1272.2" class="st16" width="7.5" height="0"/>
		<rect x="3598.6" y="1210.7" class="st31" width="7.5" height="61.5"/>
		<rect x="3598.6" y="1272.2" class="st16" width="7.5" height="0"/>
		<rect x="3496" y="1210.7" class="st31" width="7.5" height="61.5"/>
		<rect x="3496" y="1272.2" class="st16" width="7.5" height="0"/>
		<rect x="3615.7" y="1210.7" class="st31" width="7.5" height="61.5"/>
		<rect x="3615.7" y="1272.2" class="st16" width="7.5" height="0"/>
		<rect x="3632.8" y="1210.7" class="st31" width="7.5" height="61.5"/>
		<rect x="3513.1" y="1210.7" class="st31" width="7.5" height="61.5"/>
		<rect x="3513.1" y="1272.2" class="st16" width="7.5" height="0"/>
		<rect x="3649.9" y="1210.7" class="st31" width="6.6" height="61.5"/>
		<rect x="3445.9" y="1210.7" class="st31" width="6.3" height="61.5"/>
		<rect x="3452.2" y="1210.7" class="st32" width="9.6" height="61.5"/>
		<polygon class="st32" points="3478.9,1272.2 3478.9,1210.7 3469.3,1210.7 3469.3,1272.2 3476.6,1272.2 3476.6,1272.2 		"/>
		<rect x="3476.6" y="1272.2" class="st17" width="2.3" height="0"/>
		<rect x="3486.4" y="1210.7" class="st32" width="9.6" height="61.5"/>
		<rect x="3486.4" y="1272.2" class="st17" width="9.6" height="0"/>
		<rect x="3503.5" y="1210.7" class="st32" width="9.6" height="61.5"/>
		<rect x="3503.5" y="1272.2" class="st17" width="9.6" height="0"/>
		<rect x="3520.6" y="1210.7" class="st32" width="9.6" height="61.5"/>
		<rect x="3520.6" y="1272.2" class="st17" width="9.6" height="0"/>
		<rect x="3537.7" y="1210.7" class="st32" width="9.6" height="61.5"/>
		<rect x="3537.7" y="1272.2" class="st17" width="9.6" height="0"/>
		<rect x="3554.8" y="1210.7" class="st32" width="9.6" height="61.5"/>
		<rect x="3554.8" y="1272.2" class="st17" width="9.6" height="0"/>
		<rect x="3571.9" y="1210.7" class="st32" width="9.6" height="61.5"/>
		<rect x="3571.9" y="1272.2" class="st17" width="9.6" height="0"/>
		<rect x="3588.9" y="1210.7" class="st32" width="9.6" height="61.5"/>
		<rect x="3588.9" y="1272.2" class="st17" width="9.6" height="0"/>
		<rect x="3606" y="1210.7" class="st32" width="9.6" height="61.5"/>
		<rect x="3606" y="1272.2" class="st17" width="9.6" height="0"/>
		<polygon class="st32" points="3625.8,1272.2 3625.8,1272.2 3632.8,1272.2 3632.8,1210.7 3623.1,1210.7 3623.1,1272.2 		"/>
		<rect x="3623.1" y="1272.2" class="st17" width="2.6" height="0"/>
		<rect x="3640.2" y="1210.7" class="st32" width="9.6" height="61.5"/>
	</g>
	<g>
		<path class="st10" d="M3915.3,1295.7v-23.5h-3.9h-9.6h-7.5h-9.6h-7.5h-9.6h-7.5h-9.6h-7.5h-2.3v24.4c3.9-0.6,7.9-0.9,12-0.9
			H3915.3z"/>
		<path class="st11" d="M3979.8,1272.2h-9.6h-7.5h-9.6h-7.5h-9.6h-7.5h-9.6h-3.6v23.5h62.6c4.1,0,8.1,0.3,12,0.9v-24.4h-2.6H3979.8z
			"/>
		<path class="st12" d="M4072,1404c0-55.1-35.8-100.6-82.2-107.4c-3.9-0.6-7.9-0.9-12-0.9h-62.6v22.8v101.1h79
			c29.6,0,53.6,27.6,53.6,61.6v41.8c0,34-24,61.6-53.6,61.6h-79v86.7h144.9c4.3,0,8.1-2.8,10-6.8h0.4c0.1-0.4,0.1-0.8,0.1-1.2
			c0.6-1.6,0.9-3.4,0.9-5.2c0-0.6-0.1-1.1-0.2-1.6c0.3-3.3,0.5-6.5,0.5-9.9V1404z"/>
		<path class="st13" d="M3852.7,1295.7c-4.1,0-8.1,0.3-12,0.9c-46.3,6.8-82.2,52.3-82.2,107.4v242.6c0,3.3,0.2,6.6,0.5,9.8
			c-0.1,0.5-0.1,1.1-0.1,1.7c0,1.9,0.3,3.6,0.9,5.2c0.1,0.4,0.1,0.8,0.1,1.2h0.4c2,4.1,5.7,6.8,10,6.8h144.9v-86.7h-79
			c-29.6,0-53.6-27.6-53.6-61.6v-41.8c0-34,24-61.6,53.6-61.6h79v-101.1v-22.8H3852.7z"/>
		<path class="st30" d="M3782.6,1481.2v41.8c0,34,24,61.6,53.6,61.6h79v-22.4h-73.9v-24.9h73.9v-20.7h-94.4v-24.9h94.4v-20.7h-94.4
			V1446h94.4v-26.4h-79C3806.6,1419.6,3782.6,1447.2,3782.6,1481.2z"/>
		<path class="st31" d="M4009.7,1446v24.9h-94.4v20.7h94.4v24.9h-94.4v20.7h73.9v24.9h-73.9v22.4h79c29.6,0,53.6-27.6,53.6-61.6
			v-41.8c0-34-24-61.6-53.6-61.6h-79v26.4H4009.7z"/>
		<rect x="3820.9" y="1446" class="st32" width="94.4" height="24.9"/>
		<rect x="3915.3" y="1446" class="st32" width="94.4" height="24.9"/>
		<rect x="3820.9" y="1491.7" class="st32" width="94.4" height="24.9"/>
		<rect x="3915.3" y="1491.7" class="st32" width="94.4" height="24.9"/>
		<rect x="3915.3" y="1537.3" class="st32" width="73.9" height="24.9"/>
		<rect x="3841.4" y="1537.3" class="st32" width="73.9" height="24.9"/>
		<rect x="3945.6" y="1210.7" class="st31" width="7.5" height="61.5"/>
		<rect x="3945.6" y="1272.2" class="st16" width="7.5" height="0"/>
		<rect x="3928.5" y="1210.7" class="st31" width="7.5" height="61.5"/>
		<rect x="3928.5" y="1272.2" class="st16" width="7.5" height="0"/>
		<rect x="3825.9" y="1210.7" class="st31" width="7.5" height="61.5"/>
		<rect x="3843" y="1210.7" class="st31" width="7.5" height="61.5"/>
		<rect x="3843" y="1272.2" class="st16" width="7.5" height="0"/>
		<polygon class="st31" points="3915.3,1210.7 3911.4,1210.7 3911.4,1272.2 3915.3,1272.2 3918.9,1272.2 3918.9,1210.7 		"/>
		<rect x="3915.3" y="1272.2" class="st16" width="3.6" height="0"/>
		<rect x="3911.4" y="1272.2" class="st16" width="3.9" height="0"/>
		<rect x="3894.3" y="1210.7" class="st31" width="7.5" height="61.5"/>
		<rect x="3894.3" y="1272.2" class="st16" width="7.5" height="0"/>
		<rect x="3962.7" y="1210.7" class="st31" width="7.5" height="61.5"/>
		<rect x="3962.7" y="1272.2" class="st16" width="7.5" height="0"/>
		<rect x="3860.1" y="1210.7" class="st31" width="7.5" height="61.5"/>
		<rect x="3860.1" y="1272.2" class="st16" width="7.5" height="0"/>
		<rect x="3979.8" y="1210.7" class="st31" width="7.5" height="61.5"/>
		<rect x="3979.8" y="1272.2" class="st16" width="7.5" height="0"/>
		<rect x="3996.9" y="1210.7" class="st31" width="7.5" height="61.5"/>
		<rect x="3877.2" y="1210.7" class="st31" width="7.5" height="61.5"/>
		<rect x="3877.2" y="1272.2" class="st16" width="7.5" height="0"/>
		<rect x="4014" y="1210.7" class="st31" width="6.6" height="61.5"/>
		<rect x="3810" y="1210.7" class="st31" width="6.3" height="61.5"/>
		<rect x="3816.3" y="1210.7" class="st32" width="9.6" height="61.5"/>
		<polygon class="st32" points="3843,1272.2 3843,1210.7 3833.4,1210.7 3833.4,1272.2 3840.7,1272.2 3840.7,1272.2 		"/>
		<rect x="3840.7" y="1272.2" class="st17" width="2.3" height="0"/>
		<rect x="3850.5" y="1210.7" class="st32" width="9.6" height="61.5"/>
		<rect x="3850.5" y="1272.2" class="st17" width="9.6" height="0"/>
		<rect x="3867.6" y="1210.7" class="st32" width="9.6" height="61.5"/>
		<rect x="3867.6" y="1272.2" class="st17" width="9.6" height="0"/>
		<rect x="3884.7" y="1210.7" class="st32" width="9.6" height="61.5"/>
		<rect x="3884.7" y="1272.2" class="st17" width="9.6" height="0"/>
		<rect x="3901.8" y="1210.7" class="st32" width="9.6" height="61.5"/>
		<rect x="3901.8" y="1272.2" class="st17" width="9.6" height="0"/>
		<rect x="3918.9" y="1210.7" class="st32" width="9.6" height="61.5"/>
		<rect x="3918.9" y="1272.2" class="st17" width="9.6" height="0"/>
		<rect x="3936" y="1210.7" class="st32" width="9.6" height="61.5"/>
		<rect x="3936" y="1272.2" class="st17" width="9.6" height="0"/>
		<rect x="3953.1" y="1210.7" class="st32" width="9.6" height="61.5"/>
		<rect x="3953.1" y="1272.2" class="st17" width="9.6" height="0"/>
		<rect x="3970.2" y="1210.7" class="st32" width="9.6" height="61.5"/>
		<rect x="3970.2" y="1272.2" class="st17" width="9.6" height="0"/>
		<polygon class="st32" points="3989.9,1272.2 3989.9,1272.2 3996.9,1272.2 3996.9,1210.7 3987.3,1210.7 3987.3,1272.2 		"/>
		<rect x="3987.3" y="1272.2" class="st17" width="2.6" height="0"/>
		<rect x="4004.4" y="1210.7" class="st32" width="9.6" height="61.5"/>
	</g>
</g>
<g>
	<g>
		<g>
			<path class="st1" d="M1917.8,489.6V794h272V308.2C2066.3,333.5,1967.7,430.8,1917.8,489.6z"/>
			<path class="st2" d="M1917.8,242v247.6c49.9-58.8,148.6-156.1,272-181.4V242H1917.8z"/>
		</g>
		<rect x="1941" y="478" class="st3" width="224" height="16"/>
		<rect x="1941" y="508" class="st3" width="224" height="16"/>
		<rect x="1941" y="539" class="st3" width="224" height="16"/>
		<rect x="1941" y="573" class="st3" width="224" height="25"/>
		<rect x="1941" y="621" class="st3" width="224" height="25"/>
		<rect x="1945.6" y="667" class="st4" width="216" height="95"/>
	</g>
	<g>
		<g>
			<path class="st1" d="M2281.8,489.6V794h272V308.2C2430.3,333.5,2331.7,430.8,2281.8,489.6z"/>
			<path class="st2" d="M2281.8,242v247.6c49.9-58.8,148.6-156.1,272-181.4V242H2281.8z"/>
		</g>
		<rect x="2305" y="478" class="st3" width="224" height="16"/>
		<rect x="2305" y="508" class="st3" width="224" height="16"/>
		<rect x="2305" y="539" class="st3" width="224" height="16"/>
		<rect x="2305" y="573" class="st3" width="224" height="25"/>
		<rect x="2305" y="621" class="st3" width="224" height="25"/>
		<rect x="2309.6" y="667" class="st4" width="216" height="95"/>
	</g>
	<g>
		<g>
			<rect x="3202.6" y="390" class="st1" width="109.8" height="402.4"/>
			<rect x="3466" y="390" class="st1" width="307.3" height="402.4"/>
			<rect x="3312.4" y="390" class="st5" width="153.7" height="402.4"/>
		</g>
		<rect x="3496.2" y="457" class="st3" width="240" height="40"/>
		<rect x="3476.2" y="570" class="st3" width="280" height="27"/>
		<rect x="3476.2" y="626" class="st3" width="280" height="27"/>
		<rect x="3476.2" y="687" class="st3" width="280" height="27"/>
	</g>
	<g>
		<g>
			<path class="st6" d="M2705.8,676.4v116h440v-330h-33.6C2855.7,489.4,2749.6,596.5,2705.8,676.4z"/>
			<path class="st5" d="M2706,676.4c44-79.9,149.7-187.4,406.2-214.4H2706V676.4z"/>
		</g>
		<rect x="2785" y="621" class="st3" width="281" height="24"/>
		<rect x="2785" y="658" class="st3" width="281" height="24"/>
		<rect x="2723" y="719" class="st7" width="406" height="14"/>
		<rect x="2723" y="746" class="st7" width="406" height="14"/>
	</g>
	<rect y="804" class="st8" width="5000" height="108"/>
	<g>
		<g>
			<rect x="93.6" y="388" class="st1" width="109.8" height="402.4"/>
			<rect x="357" y="388" class="st1" width="307.3" height="402.4"/>
			<rect x="203.4" y="388" class="st5" width="153.7" height="402.4"/>
		</g>
		<rect x="387.2" y="455" class="st3" width="240" height="40"/>
		<rect x="367.2" y="568" class="st3" width="280" height="27"/>
		<rect x="367.2" y="624" class="st3" width="280" height="27"/>
		<rect x="367.2" y="685" class="st3" width="280" height="27"/>
	</g>
	<g>
		<g>
			<rect x="720" y="620" class="st1" width="78" height="174"/>
			<rect x="938" y="620" class="st1" width="379" height="174"/>
			<rect x="798" y="620" class="st5" width="140" height="174"/>
		</g>
		<rect x="994.2" y="661" class="st3" width="240" height="40"/>
		<rect x="974.2" y="730" class="st3" width="280" height="27"/>
	</g>
	<g>
		<g>
			<path class="st6" d="M1374.8,678v116h440V464h-33.6C1524.7,491,1418.6,598.1,1374.8,678z"/>
			<path class="st9" d="M1374.8,678c43.8-79.9,149.9-187,406.4-214h-406.4V678z"/>
		</g>
		<rect x="1454" y="623" class="st9" width="281" height="24"/>
		<rect x="1454" y="660" class="st9" width="281" height="24"/>
		<rect x="1392" y="721" class="st7" width="406" height="14"/>
		<rect x="1392" y="748" class="st7" width="406" height="14"/>
	</g>
	<g>
		<path class="st10" d="M4782.9,426.1v-23.5h-3.2h-8h-6.2h-8h-6.2h-8h-6.2h-8h-6.2h-1.9v24.4c3.2-0.6,6.6-0.9,9.9-0.9H4782.9z"/>
		<path class="st11" d="M4836.3,402.5h-8h-6.2h-8h-6.2h-8h-6.2h-8h-3v23.5h51.8c3.4,0,6.7,0.3,9.9,0.9v-24.4h-2.2H4836.3z"/>
		<path class="st12" d="M4912.7,534.3c0-55.1-29.7-100.6-68-107.4c-3.2-0.6-6.6-0.9-9.9-0.9h-51.8v22.8v101.1h65.4
			c24.5,0,44.4,27.6,44.4,61.6v41.8c0,34-19.9,61.6-44.4,61.6h-65.4v86.7h119.9c3.6,0,6.7-2.8,8.3-6.8h0.4c0-0.4,0.1-0.8,0.1-1.2
			c0.5-1.6,0.8-3.4,0.8-5.2c0-0.6-0.1-1.1-0.1-1.6c0.2-3.3,0.4-6.5,0.4-9.9V534.3z"/>
		<path class="st13" d="M4731.1,426.1c-3.4,0-6.7,0.3-9.9,0.9c-38.4,6.8-68,52.3-68,107.4v242.6c0,3.3,0.2,6.6,0.4,9.8
			c-0.1,0.5-0.1,1.1-0.1,1.7c0,1.9,0.3,3.6,0.8,5.2c0,0.4,0.1,0.8,0.1,1.2h0.4c1.6,4.1,4.7,6.8,8.3,6.8h119.9V715h-65.4
			c-24.5,0-44.4-27.6-44.4-61.6v-41.8c0-34,19.9-61.6,44.4-61.6h65.4V448.8v-22.8H4731.1z"/>
		<path class="st14" d="M4673.1,611.6v41.8c0,34,19.9,61.6,44.4,61.6h65.4v-22.4h-61.2v-24.9h61.2V647h-78.1V622h78.1v-20.7h-78.1
			v-24.9h78.1v-26.4h-65.4C4693,549.9,4673.1,577.6,4673.1,611.6z"/>
		<path class="st15" d="M4861,576.4v24.9h-78.1V622h78.1V647h-78.1v20.7h61.2v24.9h-61.2V715h65.4c24.5,0,44.4-27.6,44.4-61.6v-41.8
			c0-34-19.9-61.6-44.4-61.6h-65.4v26.4H4861z"/>
		<rect x="4704.8" y="576.4" class="st13" width="78.1" height="24.9"/>
		<rect x="4782.9" y="576.4" class="st12" width="78.1" height="24.9"/>
		<rect x="4704.8" y="622" class="st13" width="78.1" height="24.9"/>
		<rect x="4782.9" y="622" class="st12" width="78.1" height="24.9"/>
		<rect x="4782.9" y="667.7" class="st12" width="61.2" height="24.9"/>
		<rect x="4721.7" y="667.7" class="st13" width="61.2" height="24.9"/>
		<rect x="4808" y="341.1" class="st14" width="6.2" height="61.5"/>
		<rect x="4808" y="402.5" class="st16" width="6.2" height="0"/>
		<rect x="4793.8" y="341.1" class="st14" width="6.2" height="61.5"/>
		<rect x="4793.8" y="402.5" class="st16" width="6.2" height="0"/>
		<rect x="4708.9" y="341.1" class="st14" width="6.2" height="61.5"/>
		<rect x="4723.1" y="341.1" class="st14" width="6.2" height="61.5"/>
		<rect x="4723.1" y="402.5" class="st16" width="6.2" height="0"/>
		<polygon class="st14" points="4782.9,341.1 4779.7,341.1 4779.7,402.5 4782.9,402.5 4785.9,402.5 4785.9,341.1 		"/>
		<rect x="4782.9" y="402.5" class="st16" width="3" height="0"/>
		<rect x="4779.7" y="402.5" class="st16" width="3.2" height="0"/>
		<rect x="4765.5" y="341.1" class="st14" width="6.2" height="61.5"/>
		<rect x="4765.5" y="402.5" class="st16" width="6.2" height="0"/>
		<rect x="4822.1" y="341.1" class="st14" width="6.2" height="61.5"/>
		<rect x="4822.1" y="402.5" class="st16" width="6.2" height="0"/>
		<rect x="4737.2" y="341.1" class="st14" width="6.2" height="61.5"/>
		<rect x="4737.2" y="402.5" class="st16" width="6.2" height="0"/>
		<rect x="4836.3" y="341.1" class="st14" width="6.2" height="61.5"/>
		<rect x="4836.3" y="402.5" class="st16" width="6.2" height="0"/>
		<rect x="4850.5" y="341.1" class="st14" width="6.2" height="61.5"/>
		<rect x="4751.4" y="341.1" class="st14" width="6.2" height="61.5"/>
		<rect x="4751.4" y="402.5" class="st16" width="6.2" height="0"/>
		<rect x="4864.6" y="341.1" class="st14" width="5.4" height="61.5"/>
		<rect x="4695.8" y="341.1" class="st14" width="5.2" height="61.5"/>
		<rect x="4701" y="341.1" class="st15" width="8" height="61.5"/>
		<polygon class="st15" points="4723.1,402.5 4723.1,341.1 4715.1,341.1 4715.1,402.5 4721.2,402.5 4721.2,402.5 		"/>
		<rect x="4721.2" y="402.5" class="st17" width="1.9" height="0"/>
		<rect x="4729.3" y="341.1" class="st15" width="8" height="61.5"/>
		<rect x="4729.3" y="402.5" class="st17" width="8" height="0"/>
		<rect x="4743.4" y="341.1" class="st15" width="8" height="61.5"/>
		<rect x="4743.4" y="402.5" class="st17" width="8" height="0"/>
		<rect x="4757.6" y="341.1" class="st15" width="8" height="61.5"/>
		<rect x="4757.6" y="402.5" class="st17" width="8" height="0"/>
		<rect x="4771.7" y="341.1" class="st15" width="8" height="61.5"/>
		<rect x="4771.7" y="402.5" class="st17" width="8" height="0"/>
		<rect x="4785.9" y="341.1" class="st15" width="8" height="61.5"/>
		<rect x="4785.9" y="402.5" class="st17" width="8" height="0"/>
		<rect x="4800" y="341.1" class="st15" width="8" height="61.5"/>
		<rect x="4800" y="402.5" class="st17" width="8" height="0"/>
		<rect x="4814.2" y="341.1" class="st15" width="8" height="61.5"/>
		<rect x="4814.2" y="402.5" class="st17" width="8" height="0"/>
		<rect x="4828.3" y="341.1" class="st15" width="8" height="61.5"/>
		<rect x="4828.3" y="402.5" class="st17" width="8" height="0"/>
		<polygon class="st15" points="4844.6,402.5 4844.6,402.5 4850.5,402.5 4850.5,341.1 4842.5,341.1 4842.5,402.5 		"/>
		<rect x="4842.5" y="402.5" class="st17" width="2.2" height="0"/>
		<rect x="4856.6" y="341.1" class="st15" width="8" height="61.5"/>
	</g>
	<g>
		<g>
			<rect x="4443" y="395" class="st12" width="127" height="12"/>
			<rect x="4443" y="420" class="st12" width="127" height="382"/>
			<rect x="4443" y="381" class="st18" width="127" height="14"/>
			<rect x="4443" y="407" class="st18" width="127" height="13"/>
		</g>
		<g>
			<rect x="4443" y="332" class="st19" width="127" height="43"/>
			<rect x="4443" y="375" class="st12" width="127" height="6"/>
		</g>
		<rect x="4424" y="327" class="st12" width="166" height="42"/>
		<rect x="4443" y="745" class="st18" width="127" height="14"/>
		<rect x="4443" y="770" class="st18" width="127" height="14"/>
		<rect x="4472" y="467" class="st18" width="10" height="215"/>
		<rect x="4517" y="467" class="st18" width="10" height="215"/>
		<rect x="4534" y="467" class="st18" width="10" height="215"/>
	</g>
	<g>
		<g>
			<rect x="4197" y="395" class="st12" width="127" height="12"/>
			<rect x="4197" y="420" class="st12" width="127" height="382"/>
			<rect x="4197" y="381" class="st20" width="127" height="14"/>
			<rect x="4197" y="407" class="st20" width="127" height="13"/>
		</g>
		<g>
			<rect x="4197" y="332" class="st19" width="127" height="43"/>
			<rect x="4197" y="375" class="st12" width="127" height="6"/>
		</g>
		<rect x="4178" y="327" class="st12" width="166" height="42"/>
		<rect x="4197" y="745" class="st20" width="127" height="14"/>
		<rect x="4197" y="770" class="st20" width="127" height="14"/>
		<rect x="4226" y="467" class="st20" width="10" height="215"/>
		<rect x="4271" y="467" class="st20" width="10" height="215"/>
		<rect x="4288" y="467" class="st20" width="10" height="215"/>
	</g>
	<g>
		<g>
			<path class="st1" d="M3847.8,484.6V789h272V303.2C3996.3,328.5,3897.7,425.8,3847.8,484.6z"/>
			<path class="st2" d="M3847.8,237v247.6c49.9-58.8,148.6-156.1,272-181.4V237H3847.8z"/>
		</g>
		<rect x="3871" y="473" class="st3" width="224" height="16"/>
		<rect x="3871" y="503" class="st3" width="224" height="16"/>
		<rect x="3871" y="534" class="st3" width="224" height="16"/>
		<rect x="3871" y="568" class="st3" width="224" height="25"/>
		<rect x="3871" y="616" class="st3" width="224" height="25"/>
		<rect x="3875.6" y="662" class="st4" width="216" height="95"/>
	</g>
</g>
<g>
	<g>
		<g>
			<rect x="1093" y="2167" class="st1" width="600" height="276"/>
			<rect x="1093" y="2054" class="st1" width="600" height="42"/>
			<rect x="1093" y="2096" class="st4" width="600" height="71"/>
		</g>
		<rect x="1129" y="2203" class="st3" width="228" height="210"/>
		<rect x="1417" y="2203" class="st3" width="240" height="25"/>
		<rect x="1417" y="2249" class="st3" width="240" height="25"/>
		<rect x="1417" y="2295" class="st3" width="240" height="25"/>
		<rect x="1417" y="2341" class="st3" width="240" height="25"/>
		<rect x="1417" y="2387" class="st3" width="240" height="25"/>
	</g>
	<g>
		<g>
			<path class="st4" d="M1744.5,2138.6V2443h272v-485.8C1893.1,1982.5,1794.4,2079.8,1744.5,2138.6z"/>
			<path class="st2" d="M1744.5,1891v247.6c49.9-58.8,148.6-156.1,272-181.4V1891H1744.5z"/>
		</g>
		<rect x="1788.5" y="1939" class="st1" width="184" height="104"/>
		<rect x="1768" y="2096" class="st25" width="224" height="16"/>
		<rect x="1768" y="2127" class="st25" width="224" height="16"/>
		<rect x="1768" y="2157" class="st25" width="224" height="16"/>
		<rect x="1768" y="2188" class="st25" width="224" height="16"/>
		<rect x="1768" y="2222" class="st25" width="224" height="25"/>
		<rect x="1768" y="2270" class="st25" width="224" height="25"/>
		<rect x="1772.3" y="2316" class="st1" width="216" height="95"/>
	</g>
	<g>
		<g>
			<path class="st4" d="M3021.5,2138.6V2443h272v-485.8C3170.1,1982.5,3071.4,2079.8,3021.5,2138.6z"/>
			<path class="st2" d="M3021.5,1891v247.6c49.9-58.8,148.6-156.1,272-181.4V1891H3021.5z"/>
		</g>
		<rect x="3065.5" y="1939" class="st1" width="184" height="104"/>
		<rect x="3045" y="2096" class="st25" width="224" height="16"/>
		<rect x="3045" y="2127" class="st25" width="224" height="16"/>
		<rect x="3045" y="2157" class="st25" width="224" height="16"/>
		<rect x="3045" y="2188" class="st25" width="224" height="16"/>
		<rect x="3045" y="2222" class="st25" width="224" height="25"/>
		<rect x="3045" y="2270" class="st25" width="224" height="25"/>
		<rect x="3049.3" y="2316" class="st1" width="216" height="95"/>
	</g>
	<g>
		<g>
			<path class="st4" d="M2673.5,2138.6V2443h272v-485.8C2822.1,1982.5,2723.4,2079.8,2673.5,2138.6z"/>
			<path class="st2" d="M2673.5,1891v247.6c49.9-58.8,148.6-156.1,272-181.4V1891H2673.5z"/>
		</g>
		<rect x="2717.5" y="1939" class="st1" width="184" height="104"/>
		<rect x="2697" y="2096" class="st25" width="224" height="16"/>
		<rect x="2697" y="2127" class="st25" width="224" height="16"/>
		<rect x="2697" y="2157" class="st25" width="224" height="16"/>
		<rect x="2697" y="2188" class="st25" width="224" height="16"/>
		<rect x="2697" y="2222" class="st25" width="224" height="25"/>
		<rect x="2697" y="2270" class="st25" width="224" height="25"/>
		<rect x="2701.3" y="2316" class="st1" width="216" height="95"/>
	</g>
	<g>
		<g>
			<rect x="4350" y="2269" class="st1" width="78" height="174"/>
			<rect x="4568" y="2269" class="st1" width="379" height="174"/>
			<rect x="4428" y="2269" class="st33" width="140" height="174"/>
		</g>
		<rect x="4624.2" y="2310" class="st3" width="240" height="40"/>
		<rect x="4604.2" y="2379" class="st3" width="280" height="27"/>
		<polygon class="st1" points="2048,2269 2048,2443 2126,2443 2123,2268 		"/>
		<polyline class="st1" points="2645,2269 2263,2268 2266,2443 2645,2443 2645,2269 		"/>
		<polygon class="st33" points="2123,2268 2126,2443 2266,2443 2263,2268 		"/>
		<polygon class="st3" points="2562.3,2350 2319.3,2349 2319.3,2309 2562.3,2310 		"/>
		<polygon class="st3" points="2582.3,2406 2302.3,2406 2299.3,2378 2582.3,2379 		"/>
	</g>
	<g>
		<g>
			<rect x="3520" y="2036" class="st1" width="307.3" height="402.4"/>
			<rect x="3366.4" y="2036" class="st5" width="153.7" height="402.4"/>
		</g>
		<rect x="3550.2" y="2103" class="st3" width="240" height="40"/>
		<rect x="3530.2" y="2216" class="st3" width="280" height="27"/>
		<rect x="3530.2" y="2272" class="st3" width="280" height="27"/>
		<rect x="3530.2" y="2333" class="st3" width="280" height="27"/>
	</g>
	<rect y="2443.1" class="st8" width="5000" height="108"/>
	<g>
		<rect x="4090.6" y="2204" class="st34" width="204" height="240"/>
		<path class="st34" d="M4294.6,1983h-204v160h204V1983z M4105,2112v-102h175v102H4105z"/>
		<rect x="4090.6" y="2167" class="st34" width="204" height="13"/>
		<rect x="4091" y="2180" class="st12" width="204" height="24"/>
		<rect x="4091" y="2143" class="st12" width="204" height="24"/>
		<rect x="4105" y="2010" class="st12" width="175" height="102"/>
	</g>
	<g>
		<path class="st10" d="M3974.5,2173v-17h-2.3h-5.7h-4.5h-5.8h-4.5h-5.8h-4.5h-5.8h-4.5h-1.4v17.6c2.3-0.4,4.7-0.6,7.2-0.6H3974.5z"
			/>
		<path class="st11" d="M4013,2156h-5.8h-4.5h-5.8h-4.5h-5.8h-4.5h-5.8h-2.1v17h37.4c2.4,0,4.8,0.2,7.2,0.6V2156h-1.6H4013z"/>
		<path class="st12" d="M4068.2,2251.2c0-39.8-21.4-72.7-49.1-77.5c-2.3-0.4-4.7-0.6-7.2-0.6h-37.4v16.4v73h47.2
			c17.7,0,32.1,19.9,32.1,44.5v30.2c0,24.6-14.3,44.5-32.1,44.5h-47.2v62.6h86.6c2.6,0,4.8-2,6-4.9h0.3c0-0.3,0.1-0.6,0.1-0.9
			c0.4-1.2,0.6-2.4,0.6-3.8c0-0.4-0.1-0.8-0.1-1.2c0.2-2.3,0.3-4.7,0.3-7.1V2251.2z"/>
		<path class="st13" d="M3937.1,2173c-2.4,0-4.8,0.2-7.2,0.6c-27.7,4.9-49.1,37.7-49.1,77.5v175.2c0,2.4,0.1,4.8,0.3,7.1
			c0,0.4-0.1,0.8-0.1,1.2c0,1.4,0.2,2.6,0.6,3.8c0,0.3,0,0.6,0.1,0.9h0.3c1.2,2.9,3.4,4.9,6,4.9h86.6v-62.6h-47.2
			c-17.7,0-32.1-19.9-32.1-44.5v-30.2c0-24.6,14.3-44.5,32.1-44.5h47.2v-73V2173H3937.1z"/>
		<path class="st35" d="M3895.2,2306.9v30.2c0,24.6,14.3,44.5,32.1,44.5h47.2v-16.2h-44.2v-18h44.2v-15h-56.4v-18h56.4v-15h-56.4
			v-18h56.4v-19.1h-47.2C3909.5,2262.4,3895.2,2282.4,3895.2,2306.9z"/>
		<path class="st36" d="M4030.9,2281.5v18h-56.4v15h56.4v18h-56.4v15h44.2v18h-44.2v16.2h47.2c17.7,0,32.1-19.9,32.1-44.5v-30.2
			c0-24.6-14.3-44.5-32.1-44.5h-47.2v19.1H4030.9z"/>
		<rect x="3918.1" y="2281.5" class="st13" width="56.4" height="18"/>
		<rect x="3974.5" y="2281.5" class="st12" width="56.4" height="18"/>
		<rect x="3918.1" y="2314.5" class="st13" width="56.4" height="18"/>
		<rect x="3974.5" y="2314.5" class="st12" width="56.4" height="18"/>
		<rect x="3974.5" y="2347.4" class="st12" width="44.2" height="18"/>
		<rect x="3930.3" y="2347.4" class="st13" width="44.2" height="18"/>
		<rect x="3992.6" y="2111.6" class="st37" width="4.5" height="44.4"/>
		<rect x="3992.6" y="2156" class="st16" width="4.5" height="0"/>
		<rect x="3982.4" y="2111.6" class="st37" width="4.5" height="44.4"/>
		<rect x="3982.4" y="2156" class="st16" width="4.5" height="0"/>
		<rect x="3921.1" y="2111.6" class="st37" width="4.5" height="44.4"/>
		<rect x="3931.3" y="2111.6" class="st37" width="4.5" height="44.4"/>
		<rect x="3931.3" y="2156" class="st16" width="4.5" height="0"/>
		<polygon class="st37" points="3974.5,2111.6 3972.1,2111.6 3972.1,2156 3974.5,2156 3976.6,2156 3976.6,2111.6 		"/>
		<rect x="3974.5" y="2156" class="st16" width="2.1" height="0"/>
		<rect x="3972.1" y="2156" class="st16" width="2.3" height="0"/>
		<rect x="3961.9" y="2111.6" class="st37" width="4.5" height="44.4"/>
		<rect x="3961.9" y="2156" class="st16" width="4.5" height="0"/>
		<rect x="4002.8" y="2111.6" class="st37" width="4.5" height="44.4"/>
		<rect x="4002.8" y="2156" class="st16" width="4.5" height="0"/>
		<rect x="3941.5" y="2111.6" class="st37" width="4.5" height="44.4"/>
		<rect x="3941.5" y="2156" class="st16" width="4.5" height="0"/>
		<rect x="4013" y="2111.6" class="st37" width="4.5" height="44.4"/>
		<rect x="4013" y="2156" class="st16" width="4.5" height="0"/>
		<rect x="4023.2" y="2111.6" class="st37" width="4.5" height="44.4"/>
		<rect x="3951.7" y="2111.6" class="st37" width="4.5" height="44.4"/>
		<rect x="3951.7" y="2156" class="st16" width="4.5" height="0"/>
		<rect x="4033.5" y="2111.6" class="st37" width="3.9" height="44.4"/>
		<rect x="3911.6" y="2111.6" class="st37" width="3.7" height="44.4"/>
		<rect x="3915.3" y="2111.6" class="st36" width="5.8" height="44.4"/>
		<polygon class="st36" points="3931.3,2156 3931.3,2111.6 3925.5,2111.6 3925.5,2156 3929.9,2156 3929.9,2156 		"/>
		<rect x="3929.9" y="2156" class="st17" width="1.4" height="0"/>
		<rect x="3935.7" y="2111.6" class="st36" width="5.8" height="44.4"/>
		<rect x="3935.7" y="2156" class="st17" width="5.8" height="0"/>
		<rect x="3946" y="2111.6" class="st36" width="5.8" height="44.4"/>
		<rect x="3946" y="2156" class="st17" width="5.8" height="0"/>
		<rect x="3956.2" y="2111.6" class="st36" width="5.8" height="44.4"/>
		<rect x="3956.2" y="2156" class="st17" width="5.8" height="0"/>
		<rect x="3966.4" y="2111.6" class="st36" width="5.7" height="44.4"/>
		<rect x="3966.4" y="2156" class="st17" width="5.7" height="0"/>
		<rect x="3976.6" y="2111.6" class="st36" width="5.8" height="44.4"/>
		<rect x="3976.6" y="2156" class="st17" width="5.8" height="0"/>
		<rect x="3986.8" y="2111.6" class="st36" width="5.8" height="44.4"/>
		<rect x="3986.8" y="2156" class="st17" width="5.8" height="0"/>
		<rect x="3997" y="2111.6" class="st36" width="5.8" height="44.4"/>
		<rect x="3997" y="2156" class="st17" width="5.8" height="0"/>
		<rect x="4007.3" y="2111.6" class="st36" width="5.8" height="44.4"/>
		<rect x="4007.3" y="2156" class="st17" width="5.8" height="0"/>
		<polygon class="st36" points="4019.1,2156 4019.1,2156 4023.2,2156 4023.2,2111.6 4017.5,2111.6 4017.5,2156 		"/>
		<rect x="4017.5" y="2156" class="st17" width="1.6" height="0"/>
		<rect x="4027.7" y="2111.6" class="st36" width="5.7" height="44.4"/>
	</g>
	<g>
		<rect x="74.6" y="2200" class="st1" width="204" height="240"/>
		<path class="st1" d="M278.6,1979h-204v160h204V1979z M89,2108v-102h175v102H89z"/>
		<rect x="74.6" y="2163" class="st1" width="204" height="13"/>
		<rect x="75" y="2176" class="st34" width="204" height="24"/>
		<rect x="75" y="2139" class="st34" width="204" height="24"/>
		<rect x="89" y="2006" class="st34" width="175" height="102"/>
	</g>
	<g>
		<rect x="356.6" y="2200" class="st1" width="204" height="240"/>
		<path class="st1" d="M560.6,1979h-204v160h204V1979z M371,2108v-102h175v102H371z"/>
		<rect x="356.6" y="2163" class="st1" width="204" height="13"/>
		<rect x="357" y="2176" class="st4" width="204" height="24"/>
		<rect x="357" y="2139" class="st4" width="204" height="24"/>
		<rect x="371" y="2006" class="st4" width="175" height="102"/>
	</g>
	<g>
		<g>
			<rect x="873" y="2025" class="st12" width="127" height="12"/>
			<rect x="873" y="2050" class="st12" width="127" height="382"/>
			<rect x="873" y="2011" class="st18" width="127" height="14"/>
			<rect x="873" y="2037" class="st18" width="127" height="13"/>
		</g>
		<g>
			<rect x="873" y="1962" class="st19" width="127" height="43"/>
			<rect x="873" y="2005" class="st12" width="127" height="6"/>
		</g>
		<rect x="854" y="1957" class="st12" width="166" height="42"/>
		<rect x="873" y="2375" class="st18" width="127" height="14"/>
		<rect x="873" y="2400" class="st18" width="127" height="14"/>
		<rect x="902" y="2097" class="st18" width="10" height="215"/>
		<rect x="947" y="2097" class="st18" width="10" height="215"/>
		<rect x="964" y="2097" class="st18" width="10" height="215"/>
	</g>
	<g>
		<g>
			<rect x="627" y="2025" class="st12" width="127" height="12"/>
			<rect x="627" y="2050" class="st12" width="127" height="382"/>
			<rect x="627" y="2011" class="st20" width="127" height="14"/>
			<rect x="627" y="2037" class="st20" width="127" height="13"/>
		</g>
		<g>
			<rect x="627" y="1962" class="st19" width="127" height="43"/>
			<rect x="627" y="2005" class="st12" width="127" height="6"/>
		</g>
		<rect x="608" y="1957" class="st12" width="166" height="42"/>
		<rect x="627" y="2375" class="st20" width="127" height="14"/>
		<rect x="627" y="2400" class="st20" width="127" height="14"/>
		<rect x="656" y="2097" class="st20" width="10" height="215"/>
		<rect x="701" y="2097" class="st20" width="10" height="215"/>
		<rect x="718" y="2097" class="st20" width="10" height="215"/>
	</g>
</g>
<rect y="4013" class="st38" width="5000" height="988"/>
<rect y="4085" class="st39" width="5000" height="124"/>
<rect y="3551" class="st40" width="5000" height="535"/>
<g>
	<path class="st10" d="M2189.8,1298.7v-23.5h-3.9h-9.6h-7.5h-9.6h-7.5h-9.6h-7.5h-9.6h-7.5h-2.3v24.4c3.9-0.6,7.9-0.9,12-0.9H2189.8
		z"/>
	<path class="st11" d="M2254.3,1275.1h-9.6h-7.5h-9.6h-7.5h-9.6h-7.5h-9.6h-3.6v23.5h62.6c4.1,0,8.1,0.3,12,0.9v-24.4h-2.6H2254.3z"
		/>
	<path class="st12" d="M2346.5,1406.9c0-55.1-35.8-100.6-82.2-107.4c-3.9-0.6-7.9-0.9-12-0.9h-62.6v22.8v101.1h79
		c29.6,0,53.6,27.6,53.6,61.6v41.8c0,34-24,61.6-53.6,61.6h-79v86.7h144.9c4.3,0,8.1-2.8,10-6.8h0.4c0.1-0.4,0.1-0.8,0.1-1.2
		c0.6-1.6,0.9-3.4,0.9-5.2c0-0.6-0.1-1.1-0.2-1.6c0.3-3.3,0.5-6.5,0.5-9.9V1406.9z"/>
	<path class="st13" d="M2127.2,1298.7c-4.1,0-8.1,0.3-12,0.9c-46.3,6.8-82.2,52.3-82.2,107.4v242.6c0,3.3,0.2,6.6,0.5,9.8
		c-0.1,0.5-0.1,1.1-0.1,1.7c0,1.9,0.3,3.6,0.9,5.2c0.1,0.4,0.1,0.8,0.1,1.2h0.4c2,4.1,5.7,6.8,10,6.8h144.9v-86.7h-79
		c-29.6,0-53.6-27.6-53.6-61.6v-41.8c0-34,24-61.6,53.6-61.6h79v-101.1v-22.8H2127.2z"/>
	<path class="st27" d="M2057.1,1484.2v41.8c0,34,24,61.6,53.6,61.6h79v-22.4h-73.9v-24.9h73.9v-20.7h-94.4v-24.9h94.4v-20.7h-94.4
		V1449h94.4v-26.4h-79C2081.1,1422.5,2057.1,1450.1,2057.1,1484.2z"/>
	<path class="st28" d="M2284.1,1449v24.9h-94.4v20.7h94.4v24.9h-94.4v20.7h73.9v24.9h-73.9v22.4h79c29.6,0,53.6-27.6,53.6-61.6
		v-41.8c0-34-24-61.6-53.6-61.6h-79v26.4H2284.1z"/>
	<rect x="2095.4" y="1449" class="st29" width="94.4" height="24.9"/>
	<rect x="2189.8" y="1449" class="st16" width="94.4" height="24.9"/>
	<rect x="2095.4" y="1494.6" class="st29" width="94.4" height="24.9"/>
	<rect x="2189.8" y="1494.6" class="st16" width="94.4" height="24.9"/>
	<rect x="2189.8" y="1540.3" class="st16" width="73.9" height="24.9"/>
	<rect x="2115.8" y="1540.3" class="st29" width="73.9" height="24.9"/>
	<rect x="2220.1" y="1213.7" class="st27" width="7.5" height="61.5"/>
	<rect x="2220.1" y="1275.1" class="st16" width="7.5" height="0"/>
	<rect x="2203" y="1213.7" class="st27" width="7.5" height="61.5"/>
	<rect x="2203" y="1275.1" class="st16" width="7.5" height="0"/>
	<rect x="2100.4" y="1213.7" class="st27" width="7.5" height="61.5"/>
	<rect x="2117.5" y="1213.7" class="st27" width="7.5" height="61.5"/>
	<rect x="2117.5" y="1275.1" class="st16" width="7.5" height="0"/>
	<polygon class="st27" points="2189.8,1213.7 2185.9,1213.7 2185.9,1275.1 2189.8,1275.1 2193.3,1275.1 2193.3,1213.7 	"/>
	<rect x="2189.8" y="1275.1" class="st16" width="3.6" height="0"/>
	<rect x="2185.9" y="1275.1" class="st16" width="3.9" height="0"/>
	<rect x="2168.8" y="1213.7" class="st27" width="7.5" height="61.5"/>
	<rect x="2168.8" y="1275.1" class="st16" width="7.5" height="0"/>
	<rect x="2237.2" y="1213.7" class="st27" width="7.5" height="61.5"/>
	<rect x="2237.2" y="1275.1" class="st16" width="7.5" height="0"/>
	<rect x="2134.6" y="1213.7" class="st27" width="7.5" height="61.5"/>
	<rect x="2134.6" y="1275.1" class="st16" width="7.5" height="0"/>
	<rect x="2254.3" y="1213.7" class="st27" width="7.5" height="61.5"/>
	<rect x="2254.3" y="1275.1" class="st16" width="7.5" height="0"/>
	<rect x="2271.4" y="1213.7" class="st27" width="7.5" height="61.5"/>
	<rect x="2151.7" y="1213.7" class="st27" width="7.5" height="61.5"/>
	<rect x="2151.7" y="1275.1" class="st16" width="7.5" height="0"/>
	<rect x="2288.4" y="1213.7" class="st27" width="6.6" height="61.5"/>
	<rect x="2084.5" y="1213.7" class="st27" width="6.3" height="61.5"/>
	<rect x="2090.8" y="1213.7" class="st28" width="9.6" height="61.5"/>
	<polygon class="st28" points="2117.5,1275.1 2117.5,1213.7 2107.8,1213.7 2107.8,1275.1 2115.2,1275.1 2115.2,1275.1 	"/>
	<rect x="2115.2" y="1275.1" class="st17" width="2.3" height="0"/>
	<rect x="2124.9" y="1213.7" class="st28" width="9.6" height="61.5"/>
	<rect x="2124.9" y="1275.1" class="st17" width="9.6" height="0"/>
	<rect x="2142" y="1213.7" class="st28" width="9.6" height="61.5"/>
	<rect x="2142" y="1275.1" class="st17" width="9.6" height="0"/>
	<rect x="2159.1" y="1213.7" class="st28" width="9.6" height="61.5"/>
	<rect x="2159.1" y="1275.1" class="st17" width="9.6" height="0"/>
	<rect x="2176.2" y="1213.7" class="st28" width="9.6" height="61.5"/>
	<rect x="2176.2" y="1275.1" class="st17" width="9.6" height="0"/>
	<rect x="2193.3" y="1213.7" class="st28" width="9.6" height="61.5"/>
	<rect x="2193.3" y="1275.1" class="st17" width="9.6" height="0"/>
	<rect x="2210.4" y="1213.7" class="st28" width="9.6" height="61.5"/>
	<rect x="2210.4" y="1275.1" class="st17" width="9.6" height="0"/>
	<rect x="2227.5" y="1213.7" class="st28" width="9.6" height="61.5"/>
	<rect x="2227.5" y="1275.1" class="st17" width="9.6" height="0"/>
	<rect x="2244.6" y="1213.7" class="st28" width="9.6" height="61.5"/>
	<rect x="2244.6" y="1275.1" class="st17" width="9.6" height="0"/>
	<polygon class="st28" points="2264.3,1275.1 2264.3,1275.1 2271.4,1275.1 2271.4,1213.7 2261.7,1213.7 2261.7,1275.1 	"/>
	<rect x="2261.7" y="1275.1" class="st17" width="2.6" height="0"/>
	<rect x="2278.8" y="1213.7" class="st28" width="9.6" height="61.5"/>
</g>
</svg>
